<svg width="220" height="173" viewBox="0 0 220 173" fill="none" xmlns="http://www.w3.org/2000/svg">
<ellipse cx="202.007" cy="109.349" rx="17.9926" ry="21.217" fill="#E7C8B8"/>
<ellipse cx="17.9926" cy="109.349" rx="17.9926" ry="21.217" fill="#E7C8B8"/>
<ellipse cx="202.007" cy="107.309" rx="10.632" ry="12.6486" fill="#DAAF99"/>
<ellipse cx="17.9926" cy="107.309" rx="10.632" ry="12.6486" fill="#DAAF99"/>
<ellipse cx="21.2639" cy="109.349" rx="12.2677" ry="14.6887" fill="#DAAF99"/>
<ellipse cx="110" cy="84.4599" rx="92.0074" ry="84.4599" fill="#A56845"/>
<ellipse cx="110" cy="100.373" rx="92.0074" ry="72.6274" fill="#E7C8B8"/>
<ellipse cx="109.182" cy="130.974" rx="11.0409" ry="6.12029" fill="#DAAF99"/>
<path d="M20.7639 142.807C20.7639 147.299 20.5357 151.358 20.169 154.285C19.9852 155.752 19.7689 156.916 19.5358 157.703C19.4237 158.081 19.3153 158.346 19.2193 158.511C19.1233 158.346 19.0149 158.081 18.9029 157.703C18.6698 156.916 18.4535 155.752 18.2697 154.285C17.903 151.358 17.6747 147.299 17.6747 142.807C17.6747 138.314 17.903 134.255 18.2697 131.328C18.4535 129.861 18.6698 128.698 18.9029 127.91C19.0149 127.532 19.1233 127.267 19.2193 127.103C19.3153 127.267 19.4237 127.532 19.5358 127.91C19.7689 128.698 19.9852 129.861 20.169 131.328C20.5357 134.255 20.7639 138.314 20.7639 142.807ZM19.1135 158.655C19.1135 158.655 19.1149 158.653 19.1178 158.651C19.115 158.654 19.1135 158.655 19.1135 158.655ZM19.3209 158.651C19.3238 158.653 19.3252 158.655 19.3252 158.655C19.3251 158.655 19.3237 158.654 19.3209 158.651ZM19.3252 126.958C19.3252 126.959 19.3237 126.96 19.3208 126.962C19.3237 126.959 19.3251 126.958 19.3252 126.958ZM19.1179 126.962C19.1149 126.96 19.1135 126.959 19.1135 126.958C19.1135 126.958 19.115 126.959 19.1179 126.962Z" stroke="#9D9D9D"/>
<ellipse cx="150.074" cy="129.342" rx="21.6729" ry="11.8325" fill="#E69F9F"/>
<ellipse cx="69.9257" cy="129.342" rx="21.6729" ry="11.8325" fill="#E69F9F"/>
<mask id="path-12-inside-1_26_321" fill="white">
<path d="M109.646 101.203C107.835 109.334 106.945 116.337 104.591 121.531C95.8808 140.746 81.8909 155.863 59.8455 155.863C31.8412 155.863 12.7611 129.663 9.13921 105.269C6.87554 64.6127 31.8412 54.6745 59.8455 54.6745C91.537 54.6745 109.646 67.3231 109.646 101.203Z"/>
</mask>
<path d="M109.646 101.203L113.551 102.073C113.614 101.787 113.646 101.496 113.646 101.203H109.646ZM9.13921 105.269L5.1454 105.491C5.1522 105.613 5.16461 105.735 5.18259 105.856L9.13921 105.269ZM59.8455 54.6745V58.6745V54.6745ZM104.591 121.531L108.234 123.183L104.591 121.531ZM59.8455 151.863C47.1908 151.863 36.4363 145.967 28.3092 137.024C20.1468 128.041 14.7965 116.136 13.0958 104.681L5.18259 105.856C7.10374 118.796 13.1045 132.187 22.3887 142.404C31.7082 152.659 44.4959 159.863 59.8455 159.863V151.863ZM13.133 105.046C12.0497 85.5901 17.4804 74.3767 25.6405 67.8492C34.0398 61.1303 46.1681 58.6745 59.8455 58.6745V50.6745C45.5186 50.6745 31.1619 53.1878 20.6432 61.602C9.88535 70.2076 3.96503 84.2914 5.1454 105.491L13.133 105.046ZM59.8455 58.6745C75.2747 58.6745 86.5703 61.7732 94.0024 68.2495C101.32 74.6259 105.646 84.9517 105.646 101.203H113.646C113.646 83.5746 108.918 70.6361 99.2581 62.2181C89.7126 53.9001 76.1078 50.6745 59.8455 50.6745V58.6745ZM105.742 100.334C105.279 102.414 104.876 104.415 104.501 106.298C104.123 108.195 103.776 109.953 103.414 111.619C102.684 114.975 101.943 117.684 100.948 119.88L108.234 123.183C109.593 120.185 110.475 116.795 111.231 113.319C111.612 111.568 111.975 109.726 112.346 107.861C112.721 105.982 113.109 104.058 113.551 102.073L105.742 100.334ZM100.948 119.88C92.5208 138.47 79.5955 151.863 59.8455 151.863V159.863C84.1862 159.863 99.2408 143.022 108.234 123.183L100.948 119.88Z" fill="#4B4B4B" mask="url(#path-12-inside-1_26_321)"/>
<mask id="path-14-inside-2_26_321" fill="white">
<path d="M109.646 101.203C111.457 109.334 112.347 116.337 114.702 121.531C123.412 140.746 137.402 155.863 159.447 155.863C187.452 155.863 206.532 129.663 210.154 105.269C212.417 64.6127 187.452 54.6745 159.447 54.6745C127.756 54.6745 109.646 67.3231 109.646 101.203Z"/>
</mask>
<path d="M109.646 101.203L105.742 102.073C105.678 101.787 105.646 101.496 105.646 101.203H109.646ZM210.154 105.269L214.147 105.491C214.141 105.613 214.128 105.735 214.11 105.856L210.154 105.269ZM159.447 54.6745V58.6745V54.6745ZM114.702 121.531L111.059 123.183L114.702 121.531ZM159.447 151.863C172.102 151.863 182.856 145.967 190.984 137.024C199.146 128.041 204.496 116.136 206.197 104.681L214.11 105.856C212.189 118.796 206.188 132.187 196.904 142.404C187.585 152.659 174.797 159.863 159.447 159.863V151.863ZM206.16 105.046C207.243 85.5901 201.812 74.3767 193.652 67.8492C185.253 61.1303 173.125 58.6745 159.447 58.6745V50.6745C173.774 50.6745 188.131 53.1878 198.65 61.602C209.407 70.2076 215.328 84.2914 214.147 105.491L206.16 105.046ZM159.447 58.6745C144.018 58.6745 132.722 61.7732 125.29 68.2495C117.973 74.6259 113.646 84.9517 113.646 101.203H105.646C105.646 83.5746 110.374 70.6361 120.035 62.2181C129.58 53.9001 143.185 50.6745 159.447 50.6745V58.6745ZM113.551 100.334C114.014 102.414 114.417 104.415 114.792 106.298C115.17 108.195 115.517 109.953 115.879 111.619C116.609 114.975 117.349 117.684 118.345 119.88L111.059 123.183C109.7 120.185 108.818 116.795 108.062 113.319C107.681 111.568 107.318 109.726 106.946 107.861C106.572 105.982 106.184 104.058 105.742 102.073L113.551 100.334ZM118.345 119.88C126.772 138.47 139.697 151.863 159.447 151.863V159.863C135.107 159.863 120.052 143.022 111.059 123.183L118.345 119.88Z" fill="#4B4B4B" mask="url(#path-14-inside-2_26_321)"/>
<ellipse cx="149.257" cy="98.3326" rx="26.5799" ry="26.5212" fill="#4B4B4B"/>
<ellipse cx="149.665" cy="112.613" rx="12.2677" ry="12.2406" fill="white"/>
<ellipse cx="135.353" cy="93.4363" rx="6.95168" ry="6.93632" fill="white"/>
<ellipse cx="71.5613" cy="98.3326" rx="26.5799" ry="26.5212" fill="#4B4B4B"/>
<ellipse cx="71.9703" cy="112.613" rx="12.2677" ry="12.2406" fill="white"/>
<ellipse cx="57.658" cy="93.4363" rx="6.95167" ry="6.93632" fill="white"/>
<path d="M98.9591 149.335L101.044 149.776C107.31 151.1 113.78 151.13 120.058 149.863L122.677 149.335" stroke="#D7916A" stroke-width="4" stroke-linecap="round"/>
<path d="M68.6771 66.4764L66.1177 66.4264C60.0063 66.3069 53.9312 67.3802 48.2325 69.5861L45.3414 70.7052" stroke="#A56845" stroke-width="4" stroke-linecap="round"/>
<path d="M149.665 66.7834L152.219 66.5859C158.312 66.1146 164.439 66.836 170.255 68.7098L173.207 69.6608" stroke="#A56845" stroke-width="4" stroke-linecap="round"/>
<ellipse cx="47.4349" cy="73.4434" rx="2.45353" ry="2.44811" fill="#9D9D9D"/>
<ellipse cx="47.4349" cy="66.0991" rx="2.45353" ry="2.44811" fill="#9D9D9D"/>
<path d="M47.4349 73.4434C46.2081 71.9473 44.4907 68.3024 47.4349 65.691" stroke="#9D9D9D" stroke-linecap="round"/>
</svg>
