<svg width="220" height="223" viewBox="0 0 220 223" fill="none" xmlns="http://www.w3.org/2000/svg">
<path d="M29.9651 218V204H35.8251C36.8517 204 37.7917 204.173 38.6451 204.52C39.4984 204.853 40.2317 205.333 40.8451 205.96C41.4717 206.587 41.9517 207.327 42.2851 208.18C42.6184 209.033 42.7851 209.973 42.7851 211C42.7851 212.027 42.6184 212.973 42.2851 213.84C41.9517 214.693 41.4717 215.433 40.8451 216.06C40.2317 216.673 39.4984 217.153 38.6451 217.5C37.7917 217.833 36.8517 218 35.8251 218H29.9651ZM33.3651 215.68L32.9051 215H35.7251C36.2851 215 36.7851 214.907 37.2251 214.72C37.6651 214.52 38.0384 214.247 38.3451 213.9C38.6651 213.553 38.9117 213.133 39.0851 212.64C39.2584 212.147 39.3451 211.6 39.3451 211C39.3451 210.4 39.2584 209.853 39.0851 209.36C38.9117 208.867 38.6651 208.447 38.3451 208.1C38.0384 207.753 37.6651 207.487 37.2251 207.3C36.7851 207.1 36.2851 207 35.7251 207H32.8451L33.3651 206.36V215.68ZM45.4143 218V204H55.1743V206.9H48.7143V215.1H55.3743V218H45.4143ZM47.0143 212.26V209.5H54.2743V212.26H47.0143ZM58.3049 218V204H61.7049V215H67.9449V218H58.3049ZM70.2124 218V215.14H72.5724V206.86H70.2124V204H78.3524V206.86H75.9724V215.14H78.3524V218H70.2124ZM85.5062 218L79.9062 204H83.4462L86.1462 211.14C86.3062 211.553 86.4395 211.913 86.5462 212.22C86.6662 212.527 86.7662 212.813 86.8462 213.08C86.9395 213.347 87.0195 213.62 87.0862 213.9C87.1662 214.167 87.2528 214.473 87.3462 214.82H86.7262C86.8328 214.367 86.9395 213.967 87.0462 213.62C87.1528 213.26 87.2728 212.893 87.4062 212.52C87.5395 212.133 87.7062 211.673 87.9062 211.14L90.5062 204H93.9862L88.3462 218H85.5062ZM95.8245 218V204H105.584V206.9H99.1245V215.1H105.784V218H95.8245ZM97.4245 212.26V209.5H104.684V212.26H97.4245ZM108.715 218V204H115.015C115.908 204 116.715 204.193 117.435 204.58C118.168 204.967 118.742 205.5 119.155 206.18C119.568 206.847 119.775 207.607 119.775 208.46C119.775 209.34 119.568 210.133 119.155 210.84C118.742 211.533 118.175 212.08 117.455 212.48C116.735 212.88 115.922 213.08 115.015 213.08H111.955V218H108.715ZM116.475 218L112.915 211.68L116.395 211.18L120.355 218H116.475ZM111.955 210.48H114.715C115.062 210.48 115.362 210.407 115.615 210.26C115.882 210.1 116.082 209.88 116.215 209.6C116.362 209.32 116.435 209 116.435 208.64C116.435 208.28 116.355 207.967 116.195 207.7C116.035 207.42 115.802 207.207 115.495 207.06C115.202 206.913 114.842 206.84 114.415 206.84H111.955V210.48ZM125.382 218V211.02L125.522 212L119.862 204H123.722L128.042 210.2L126.282 210.14L130.182 204H133.922L128.502 212.22L128.802 210.86V218H125.382ZM144.437 213.9L143.557 211.04L150.497 204H154.517L144.437 213.9ZM141.957 218V204H145.357V218H141.957ZM150.937 218L145.737 211.16L148.037 209.18L154.897 218H150.937ZM156.742 218V204H163.042C163.936 204 164.742 204.193 165.462 204.58C166.196 204.967 166.769 205.5 167.182 206.18C167.596 206.847 167.802 207.607 167.802 208.46C167.802 209.34 167.596 210.133 167.182 210.84C166.769 211.533 166.202 212.08 165.482 212.48C164.762 212.88 163.949 213.08 163.042 213.08H159.982V218H156.742ZM164.502 218L160.942 211.68L164.422 211.18L168.382 218H164.502ZM159.982 210.48H162.742C163.089 210.48 163.389 210.407 163.642 210.26C163.909 210.1 164.109 209.88 164.242 209.6C164.389 209.32 164.462 209 164.462 208.64C164.462 208.28 164.382 207.967 164.222 207.7C164.062 207.42 163.829 207.207 163.522 207.06C163.229 206.913 162.869 206.84 162.442 206.84H159.982V210.48ZM170.505 218V215.14H172.865V206.86H170.505V204H178.645V206.86H176.265V215.14H178.645V218H170.505ZM186.519 218.2C185.599 218.2 184.766 218.093 184.019 217.88C183.286 217.653 182.632 217.333 182.059 216.92C181.486 216.493 180.972 215.993 180.519 215.42L182.579 213.08C183.246 213.973 183.912 214.573 184.579 214.88C185.259 215.187 185.959 215.34 186.679 215.34C187.039 215.34 187.366 215.293 187.659 215.2C187.952 215.107 188.179 214.973 188.339 214.8C188.499 214.613 188.579 214.387 188.579 214.12C188.579 213.92 188.526 213.74 188.419 213.58C188.326 213.42 188.192 213.28 188.019 213.16C187.846 213.04 187.639 212.933 187.399 212.84C187.159 212.733 186.906 212.647 186.639 212.58C186.372 212.5 186.099 212.433 185.819 212.38C185.046 212.207 184.372 211.993 183.799 211.74C183.226 211.487 182.746 211.18 182.359 210.82C181.986 210.447 181.706 210.027 181.519 209.56C181.332 209.08 181.239 208.547 181.239 207.96C181.239 207.333 181.379 206.76 181.659 206.24C181.952 205.707 182.339 205.253 182.819 204.88C183.312 204.493 183.879 204.2 184.519 204C185.159 203.787 185.826 203.68 186.519 203.68C187.439 203.68 188.226 203.78 188.879 203.98C189.546 204.167 190.112 204.44 190.579 204.8C191.059 205.16 191.466 205.593 191.799 206.1L189.699 208.12C189.419 207.773 189.112 207.487 188.779 207.26C188.459 207.033 188.112 206.86 187.739 206.74C187.379 206.62 187.006 206.56 186.619 206.56C186.219 206.56 185.872 206.613 185.579 206.72C185.299 206.813 185.079 206.953 184.919 207.14C184.759 207.313 184.679 207.527 184.679 207.78C184.679 208.007 184.746 208.2 184.879 208.36C185.012 208.52 185.192 208.667 185.419 208.8C185.646 208.92 185.906 209.027 186.199 209.12C186.492 209.2 186.799 209.267 187.119 209.32C187.852 209.467 188.512 209.66 189.099 209.9C189.699 210.14 190.212 210.433 190.639 210.78C191.079 211.127 191.412 211.54 191.639 212.02C191.879 212.487 191.999 213.033 191.999 213.66C191.999 214.633 191.759 215.46 191.279 216.14C190.812 216.807 190.166 217.32 189.339 217.68C188.526 218.027 187.586 218.2 186.519 218.2Z" fill="#F1F1F1"/>
<ellipse cx="202.007" cy="109.349" rx="17.9926" ry="21.217" fill="#E7C8B8"/>
<ellipse cx="17.9926" cy="109.349" rx="17.9926" ry="21.217" fill="#E7C8B8"/>
<ellipse cx="202.007" cy="107.309" rx="10.632" ry="12.6486" fill="#DAAF99"/>
<ellipse cx="17.9926" cy="107.309" rx="10.632" ry="12.6486" fill="#DAAF99"/>
<ellipse cx="21.2639" cy="109.349" rx="12.2677" ry="14.6887" fill="#DAAF99"/>
<ellipse cx="110" cy="84.4599" rx="92.0074" ry="84.4599" fill="#A56845"/>
<ellipse cx="110" cy="100.373" rx="92.0074" ry="72.6274" fill="#E7C8B8"/>
<ellipse cx="109.182" cy="130.974" rx="11.0409" ry="6.12029" fill="#DAAF99"/>
<path d="M20.7639 142.807C20.7639 147.299 20.5357 151.358 20.169 154.285C19.9852 155.752 19.7689 156.916 19.5358 157.703C19.4237 158.081 19.3153 158.346 19.2193 158.511C19.1233 158.346 19.0149 158.081 18.9029 157.703C18.6698 156.916 18.4535 155.752 18.2697 154.285C17.903 151.358 17.6747 147.299 17.6747 142.807C17.6747 138.314 17.903 134.255 18.2697 131.328C18.4535 129.861 18.6698 128.698 18.9029 127.91C19.0149 127.532 19.1233 127.267 19.2193 127.103C19.3153 127.267 19.4237 127.532 19.5358 127.91C19.7689 128.698 19.9852 129.861 20.169 131.328C20.5357 134.255 20.7639 138.314 20.7639 142.807ZM19.1135 158.655C19.1135 158.655 19.1149 158.653 19.1178 158.651C19.115 158.654 19.1135 158.655 19.1135 158.655ZM19.3209 158.651C19.3238 158.653 19.3252 158.655 19.3252 158.655C19.3251 158.655 19.3237 158.654 19.3209 158.651ZM19.3252 126.958C19.3252 126.959 19.3237 126.96 19.3208 126.962C19.3237 126.959 19.3251 126.958 19.3252 126.958ZM19.1179 126.962C19.1149 126.96 19.1135 126.959 19.1135 126.958C19.1135 126.958 19.115 126.959 19.1179 126.962Z" stroke="#9D9D9D"/>
<ellipse cx="150.074" cy="129.342" rx="21.6729" ry="11.8325" fill="#E69F9F"/>
<ellipse cx="69.9257" cy="129.342" rx="21.6729" ry="11.8325" fill="#E69F9F"/>
<path fill-rule="evenodd" clip-rule="evenodd" d="M59.8455 150.863C47.5276 150.863 37.0274 145.13 29.0493 136.351C21.0805 127.582 15.8284 115.959 14.1189 104.76C13.1035 85.6654 18.4612 74.8727 26.2652 68.6301C34.3996 62.1231 46.2493 59.6745 59.8455 59.6745C75.1706 59.6745 86.1776 62.7573 93.3454 69.0034C100.291 75.056 104.55 84.9001 104.645 100.665C104.229 102.56 103.862 104.384 103.52 106.102L103.403 106.691L103.403 106.691C103.069 108.367 102.759 109.924 102.437 111.406C101.71 114.748 100.987 117.371 100.037 119.467C91.6808 137.901 79.0217 150.863 59.8455 150.863ZM59.8455 155.863C31.8412 155.863 12.7611 129.663 9.13921 105.269C6.87554 64.6127 31.8412 54.6745 59.8455 54.6745C91.537 54.6745 109.646 67.3231 109.646 101.203C109.146 103.449 108.716 105.609 108.306 107.669V107.669C107.232 113.065 106.295 117.772 104.591 121.531C95.8808 140.746 81.8909 155.863 59.8455 155.863ZM159.447 150.863C171.765 150.863 182.265 145.13 190.243 136.351C198.212 127.582 203.464 115.959 205.174 104.76C206.189 85.6654 200.832 74.8727 193.028 68.6301C184.893 62.1231 173.043 59.6745 159.447 59.6745C144.122 59.6745 133.115 62.7573 125.947 69.0034C119.002 75.056 114.743 84.9001 114.648 100.665C115.063 102.56 115.43 104.384 115.773 106.102L115.89 106.689C116.223 108.366 116.533 109.923 116.856 111.406C117.583 114.748 118.306 117.371 119.256 119.467C127.612 137.901 140.271 150.863 159.447 150.863ZM159.447 155.863C187.452 155.863 206.532 129.663 210.154 105.269C212.417 64.6127 187.452 54.6745 159.447 54.6745C127.756 54.6745 109.646 67.3231 109.646 101.203C110.147 103.449 110.577 105.609 110.987 107.669L110.987 107.669C112.061 113.065 112.998 117.772 114.702 121.531C123.412 140.746 137.402 155.863 159.447 155.863Z" fill="#4B4B4B"/>
<ellipse cx="149.257" cy="98.3326" rx="26.5799" ry="26.5212" fill="#4B4B4B"/>
<ellipse cx="149.665" cy="112.613" rx="12.2677" ry="12.2406" fill="white"/>
<ellipse cx="135.353" cy="93.4363" rx="6.95168" ry="6.93632" fill="white"/>
<ellipse cx="71.5613" cy="98.3326" rx="26.5799" ry="26.5212" fill="#4B4B4B"/>
<ellipse cx="71.9703" cy="112.613" rx="12.2677" ry="12.2406" fill="white"/>
<ellipse cx="57.658" cy="93.4363" rx="6.95167" ry="6.93632" fill="white"/>
<path d="M98.9591 149.335L101.044 149.776C107.31 151.1 113.78 151.13 120.058 149.863L122.677 149.335" stroke="#D7916A" stroke-width="4" stroke-linecap="round"/>
<path d="M68.6771 66.4764L66.1177 66.4264C60.0063 66.3069 53.9312 67.3802 48.2325 69.5861L45.3414 70.7052" stroke="#A56845" stroke-width="4" stroke-linecap="round"/>
<path d="M149.665 66.7834L152.219 66.5859C158.312 66.1146 164.439 66.836 170.255 68.7098L173.207 69.6608" stroke="#A56845" stroke-width="4" stroke-linecap="round"/>
<ellipse cx="47.4349" cy="73.4434" rx="2.45353" ry="2.44811" fill="#9D9D9D"/>
<ellipse cx="47.4349" cy="66.0991" rx="2.45353" ry="2.44811" fill="#9D9D9D"/>
<path d="M47.4349 73.4434C46.2081 71.9473 44.4907 68.3024 47.4349 65.691" stroke="#9D9D9D" stroke-linecap="round"/>
</svg>
