<svg width="431" height="340" viewBox="0 0 431 340" fill="none" xmlns="http://www.w3.org/2000/svg">
<ellipse cx="395.751" cy="214.906" rx="35.2491" ry="41.6981" fill="#E7C8B8"/>
<ellipse cx="35.2491" cy="214.906" rx="35.2491" ry="41.6981" fill="#E7C8B8"/>
<ellipse cx="395.751" cy="210.896" rx="20.829" ry="24.8585" fill="#DAAF99"/>
<ellipse cx="35.249" cy="210.896" rx="20.829" ry="24.8585" fill="#DAAF99"/>
<ellipse cx="41.658" cy="214.906" rx="24.0335" ry="28.8679" fill="#DAAF99"/>
<path d="M395.751 165.991C395.751 257.665 315.05 331.981 215.5 331.981C115.95 331.981 35.2491 257.665 35.2491 165.991C35.2491 74.3165 115.95 0 215.5 0C315.05 0 395.751 74.3165 395.751 165.991Z" fill="#A56845"/>
<path d="M395.751 197.264C395.751 276.095 315.05 340 215.5 340C115.95 340 35.2491 276.095 35.2491 197.264C35.2491 118.433 115.95 54.5283 215.5 54.5283C315.05 54.5283 395.751 118.433 395.751 197.264Z" fill="#E7C8B8"/>
<ellipse cx="213.898" cy="257.406" rx="21.6301" ry="12.0283" fill="#DAAF99"/>
<path d="M41.158 280.66C41.158 289.504 40.7102 297.501 39.9887 303.279C39.6274 306.172 39.1998 308.489 38.732 310.074C38.497 310.87 38.2602 311.451 38.0329 311.824C37.9195 312.01 37.8215 312.121 37.7465 312.182C37.7106 312.212 37.685 312.225 37.6705 312.231C37.6634 312.234 37.6588 312.235 37.6564 312.235C37.6541 312.236 37.6529 312.236 37.6524 312.236C37.6519 312.236 37.6508 312.236 37.6485 312.235C37.6461 312.235 37.6415 312.234 37.6344 312.231C37.6199 312.225 37.5943 312.212 37.5583 312.182C37.4833 312.121 37.3854 312.01 37.272 311.824C37.0447 311.451 36.8078 310.87 36.5728 310.074C36.105 308.489 35.6774 306.172 35.3162 303.279C34.5946 297.501 34.1469 289.504 34.1469 280.66C34.1469 271.817 34.5946 263.82 35.3162 258.042C35.6774 255.149 36.105 252.832 36.5728 251.247C36.8078 250.451 37.0447 249.869 37.272 249.497C37.3854 249.311 37.4833 249.199 37.5583 249.138C37.5943 249.109 37.6199 249.096 37.6344 249.09C37.6415 249.087 37.6461 249.086 37.6485 249.085C37.6508 249.085 37.6519 249.085 37.6524 249.085C37.6529 249.085 37.6541 249.085 37.6564 249.085C37.6588 249.086 37.6634 249.087 37.6705 249.09C37.685 249.096 37.7106 249.109 37.7465 249.138C37.8215 249.199 37.9195 249.311 38.0329 249.497C38.2602 249.869 38.497 250.451 38.732 251.247C39.1998 252.832 39.6274 255.149 39.9887 258.042C40.7102 263.82 41.158 271.817 41.158 280.66Z" stroke="#9D9D9D"/>
<ellipse cx="294.009" cy="254.198" rx="42.4591" ry="23.2547" fill="#E69F9F"/>
<ellipse cx="136.991" cy="254.198" rx="42.4591" ry="23.2547" fill="#E69F9F"/>
<ellipse cx="292.407" cy="193.255" rx="52.0725" ry="52.1226" fill="#4B4B4B"/>
<ellipse cx="293.208" cy="221.321" rx="24.0335" ry="24.0566" fill="white"/>
<ellipse cx="265.169" cy="183.632" rx="13.619" ry="13.6321" fill="white"/>
<ellipse cx="140.195" cy="193.255" rx="52.0725" ry="52.1226" fill="#4B4B4B"/>
<ellipse cx="140.996" cy="221.321" rx="24.0335" ry="24.0566" fill="white"/>
<ellipse cx="112.957" cy="183.632" rx="13.619" ry="13.6321" fill="white"/>
<path d="M193.87 293.491L207.035 296.282C213.32 297.614 219.81 297.644 226.107 296.37L240.335 293.491" stroke="#D7916A" stroke-width="4" stroke-linecap="round"/>
<path d="M134.545 130.647L120.68 130.375C114.552 130.255 108.459 131.335 102.745 133.554L88.8279 138.958" stroke="#A56845" stroke-width="4" stroke-linecap="round"/>
<path d="M293.208 131.251L307.034 130.178C313.145 129.704 319.29 130.43 325.123 132.315L339.328 136.906" stroke="#A56845" stroke-width="4" stroke-linecap="round"/>
<ellipse cx="92.9294" cy="144.34" rx="4.80669" ry="4.81132" fill="#9D9D9D"/>
<ellipse cx="92.9294" cy="129.906" rx="4.80669" ry="4.81132" fill="#9D9D9D"/>
<path d="M92.9293 144.34C90.5259 141.399 87.1612 134.236 92.9293 129.104" stroke="#9D9D9D" stroke-linecap="round"/>
<path d="M315.11 301C239.91 305 217.11 235.333 215.11 200C215.11 168.667 235.11 106 315.11 106C395.11 106 411.776 168.667 410.11 200C409.776 232 390.31 297 315.11 301Z" fill="#A7C5C3" fill-opacity="0.3"/>
<path d="M120 301C44.8 305 22 235.333 20 200C20 168.667 40 106 120 106C200 106 216.667 168.667 215 200C214.667 232 195.2 297 120 301Z" fill="#A7C5C3" fill-opacity="0.3"/>
<path d="M315.11 301C239.91 305 217.11 235.333 215.11 200C215.11 168.667 235.11 106 315.11 106C395.11 106 411.776 168.667 410.11 200C409.776 232 390.31 297 315.11 301Z" stroke="#4B4B4B" stroke-width="5"/>
<path d="M120 301C44.8 305 22 235.333 20 200C20 168.667 40 106 120 106C200 106 216.667 168.667 215 200C214.667 232 195.2 297 120 301Z" stroke="#4B4B4B" stroke-width="5"/>
</svg>
