<svg width="225" height="223" viewBox="0 0 225 223" fill="none" xmlns="http://www.w3.org/2000/svg">
<path d="M31.9651 218V204H37.8251C38.8517 204 39.7917 204.173 40.6451 204.52C41.4984 204.853 42.2317 205.333 42.8451 205.96C43.4717 206.587 43.9517 207.327 44.2851 208.18C44.6184 209.033 44.7851 209.973 44.7851 211C44.7851 212.027 44.6184 212.973 44.2851 213.84C43.9517 214.693 43.4717 215.433 42.8451 216.06C42.2317 216.673 41.4984 217.153 40.6451 217.5C39.7917 217.833 38.8517 218 37.8251 218H31.9651ZM35.3651 215.68L34.9051 215H37.7251C38.2851 215 38.7851 214.907 39.2251 214.72C39.6651 214.52 40.0384 214.247 40.3451 213.9C40.6651 213.553 40.9117 213.133 41.0851 212.64C41.2584 212.147 41.3451 211.6 41.3451 211C41.3451 210.4 41.2584 209.853 41.0851 209.36C40.9117 208.867 40.6651 208.447 40.3451 208.1C40.0384 207.753 39.6651 207.487 39.2251 207.3C38.7851 207.1 38.2851 207 37.7251 207H34.8451L35.3651 206.36V215.68ZM47.4143 218V204H57.1743V206.9H50.7143V215.1H57.3743V218H47.4143ZM49.0143 212.26V209.5H56.2743V212.26H49.0143ZM60.3049 218V204H63.7049V215H69.9449V218H60.3049ZM72.2124 218V215.14H74.5724V206.86H72.2124V204H80.3524V206.86H77.9724V215.14H80.3524V218H72.2124ZM87.5062 218L81.9062 204H85.4462L88.1462 211.14C88.3062 211.553 88.4395 211.913 88.5462 212.22C88.6662 212.527 88.7662 212.813 88.8462 213.08C88.9395 213.347 89.0195 213.62 89.0862 213.9C89.1662 214.167 89.2528 214.473 89.3462 214.82H88.7262C88.8328 214.367 88.9395 213.967 89.0462 213.62C89.1528 213.26 89.2728 212.893 89.4062 212.52C89.5395 212.133 89.7062 211.673 89.9062 211.14L92.5062 204H95.9862L90.3462 218H87.5062ZM97.8245 218V204H107.584V206.9H101.124V215.1H107.784V218H97.8245ZM99.4245 212.26V209.5H106.684V212.26H99.4245ZM110.715 218V204H117.015C117.908 204 118.715 204.193 119.435 204.58C120.168 204.967 120.742 205.5 121.155 206.18C121.568 206.847 121.775 207.607 121.775 208.46C121.775 209.34 121.568 210.133 121.155 210.84C120.742 211.533 120.175 212.08 119.455 212.48C118.735 212.88 117.922 213.08 117.015 213.08H113.955V218H110.715ZM118.475 218L114.915 211.68L118.395 211.18L122.355 218H118.475ZM113.955 210.48H116.715C117.062 210.48 117.362 210.407 117.615 210.26C117.882 210.1 118.082 209.88 118.215 209.6C118.362 209.32 118.435 209 118.435 208.64C118.435 208.28 118.355 207.967 118.195 207.7C118.035 207.42 117.802 207.207 117.495 207.06C117.202 206.913 116.842 206.84 116.415 206.84H113.955V210.48ZM127.382 218V211.02L127.522 212L121.862 204H125.722L130.042 210.2L128.282 210.14L132.182 204H135.922L130.502 212.22L130.802 210.86V218H127.382ZM146.437 213.9L145.557 211.04L152.497 204H156.517L146.437 213.9ZM143.957 218V204H147.357V218H143.957ZM152.937 218L147.737 211.16L150.037 209.18L156.897 218H152.937ZM158.742 218V204H165.042C165.936 204 166.742 204.193 167.462 204.58C168.196 204.967 168.769 205.5 169.182 206.18C169.596 206.847 169.802 207.607 169.802 208.46C169.802 209.34 169.596 210.133 169.182 210.84C168.769 211.533 168.202 212.08 167.482 212.48C166.762 212.88 165.949 213.08 165.042 213.08H161.982V218H158.742ZM166.502 218L162.942 211.68L166.422 211.18L170.382 218H166.502ZM161.982 210.48H164.742C165.089 210.48 165.389 210.407 165.642 210.26C165.909 210.1 166.109 209.88 166.242 209.6C166.389 209.32 166.462 209 166.462 208.64C166.462 208.28 166.382 207.967 166.222 207.7C166.062 207.42 165.829 207.207 165.522 207.06C165.229 206.913 164.869 206.84 164.442 206.84H161.982V210.48ZM172.505 218V215.14H174.865V206.86H172.505V204H180.645V206.86H178.265V215.14H180.645V218H172.505ZM188.519 218.2C187.599 218.2 186.766 218.093 186.019 217.88C185.286 217.653 184.632 217.333 184.059 216.92C183.486 216.493 182.972 215.993 182.519 215.42L184.579 213.08C185.246 213.973 185.912 214.573 186.579 214.88C187.259 215.187 187.959 215.34 188.679 215.34C189.039 215.34 189.366 215.293 189.659 215.2C189.952 215.107 190.179 214.973 190.339 214.8C190.499 214.613 190.579 214.387 190.579 214.12C190.579 213.92 190.526 213.74 190.419 213.58C190.326 213.42 190.192 213.28 190.019 213.16C189.846 213.04 189.639 212.933 189.399 212.84C189.159 212.733 188.906 212.647 188.639 212.58C188.372 212.5 188.099 212.433 187.819 212.38C187.046 212.207 186.372 211.993 185.799 211.74C185.226 211.487 184.746 211.18 184.359 210.82C183.986 210.447 183.706 210.027 183.519 209.56C183.332 209.08 183.239 208.547 183.239 207.96C183.239 207.333 183.379 206.76 183.659 206.24C183.952 205.707 184.339 205.253 184.819 204.88C185.312 204.493 185.879 204.2 186.519 204C187.159 203.787 187.826 203.68 188.519 203.68C189.439 203.68 190.226 203.78 190.879 203.98C191.546 204.167 192.112 204.44 192.579 204.8C193.059 205.16 193.466 205.593 193.799 206.1L191.699 208.12C191.419 207.773 191.112 207.487 190.779 207.26C190.459 207.033 190.112 206.86 189.739 206.74C189.379 206.62 189.006 206.56 188.619 206.56C188.219 206.56 187.872 206.613 187.579 206.72C187.299 206.813 187.079 206.953 186.919 207.14C186.759 207.313 186.679 207.527 186.679 207.78C186.679 208.007 186.746 208.2 186.879 208.36C187.012 208.52 187.192 208.667 187.419 208.8C187.646 208.92 187.906 209.027 188.199 209.12C188.492 209.2 188.799 209.267 189.119 209.32C189.852 209.467 190.512 209.66 191.099 209.9C191.699 210.14 192.212 210.433 192.639 210.78C193.079 211.127 193.412 211.54 193.639 212.02C193.879 212.487 193.999 213.033 193.999 213.66C193.999 214.633 193.759 215.46 193.279 216.14C192.812 216.807 192.166 217.32 191.339 217.68C190.526 218.027 189.586 218.2 188.519 218.2Z" fill="#F1F1F1"/>
<ellipse cx="206.598" cy="112.19" rx="18.4015" ry="21.7682" fill="#E7C8B8"/>
<ellipse cx="18.4015" cy="112.19" rx="18.4015" ry="21.7682" fill="#E7C8B8"/>
<ellipse cx="206.599" cy="110.097" rx="10.8736" ry="12.9772" fill="#DAAF99"/>
<ellipse cx="18.4015" cy="110.097" rx="10.8736" ry="12.9772" fill="#DAAF99"/>
<ellipse cx="21.7472" cy="112.19" rx="12.5465" ry="15.0703" fill="#DAAF99"/>
<path d="M206.598 86.654C206.598 134.512 164.469 173.308 112.5 173.308C60.5308 173.308 18.4015 134.512 18.4015 86.654C18.4015 38.7963 60.5308 0 112.5 0C164.469 0 206.598 38.7963 206.598 86.654Z" fill="#A56845"/>
<path d="M206.598 102.98C206.598 144.133 164.469 177.494 112.5 177.494C60.5308 177.494 18.4015 144.133 18.4015 102.98C18.4015 61.8271 60.5308 28.466 112.5 28.466C164.469 28.466 206.598 61.8271 206.598 102.98Z" fill="#E7C8B8"/>
<ellipse cx="111.664" cy="134.377" rx="11.2918" ry="6.27928" fill="#DAAF99"/>
<path d="M21.4862 146.516C21.4862 151.133 21.2524 155.308 20.8757 158.324C20.6872 159.835 20.4639 161.044 20.2197 161.871C20.097 162.287 19.9734 162.591 19.8547 162.785C19.7955 162.882 19.7444 162.94 19.7052 162.972C19.6865 162.988 19.6731 162.994 19.6656 162.998C19.6636 162.998 19.662 162.999 19.6607 162.999C19.6596 163 19.6588 163 19.6582 163L19.6561 163L19.6541 163C19.6528 163 19.6504 162.999 19.6467 162.998C19.6391 162.994 19.6258 162.988 19.607 162.972C19.5679 162.94 19.5167 162.882 19.4575 162.785C19.3389 162.591 19.2152 162.287 19.0925 161.871C18.8483 161.044 18.6251 159.835 18.4365 158.324C18.0598 155.308 17.8261 151.133 17.8261 146.516C17.8261 141.9 18.0598 137.725 18.4365 134.708C18.6251 133.198 18.8483 131.989 19.0925 131.162C19.2152 130.746 19.3389 130.442 19.4575 130.248C19.5167 130.151 19.5679 130.093 19.607 130.061C19.6258 130.045 19.6391 130.038 19.6467 130.035C19.6504 130.034 19.6528 130.033 19.6541 130.033L19.6561 130.033L19.6582 130.033C19.6594 130.033 19.6619 130.034 19.6656 130.035C19.6731 130.038 19.6865 130.045 19.7052 130.061C19.7444 130.093 19.7955 130.151 19.8547 130.248C19.9734 130.442 20.097 130.746 20.2197 131.162C20.4639 131.989 20.6872 133.198 20.8757 134.708C21.2524 137.725 21.4862 141.9 21.4862 146.516Z" stroke="#9D9D9D" stroke-width="0.522042"/>
<ellipse cx="153.485" cy="132.702" rx="22.1654" ry="12.1399" fill="#E69F9F"/>
<ellipse cx="71.5149" cy="132.702" rx="22.1654" ry="12.1399" fill="#E69F9F"/>
<ellipse cx="152.649" cy="100.887" rx="27.184" ry="27.2102" fill="#4B4B4B"/>
<ellipse cx="153.067" cy="115.539" rx="12.5465" ry="12.5586" fill="white"/>
<ellipse cx="138.429" cy="95.8636" rx="7.10967" ry="7.11651" fill="white"/>
<ellipse cx="73.1877" cy="100.887" rx="27.184" ry="27.2102" fill="#4B4B4B"/>
<ellipse cx="73.6059" cy="115.539" rx="12.5465" ry="12.5586" fill="white"/>
<ellipse cx="58.9684" cy="95.8636" rx="7.10967" ry="7.11651" fill="white"/>
<path d="M101.208 153.214L108.081 154.672C111.362 155.367 114.75 155.383 118.037 154.718L125.465 153.214" stroke="#D7916A" stroke-width="2.08817" stroke-linecap="round"/>
<path d="M70.2379 68.2033L62.9998 68.0614C59.8008 67.9987 56.6202 68.5623 53.6372 69.7207L46.3718 72.542" stroke="#A56845" stroke-width="2.08817" stroke-linecap="round"/>
<path d="M153.067 68.5183L160.285 67.9583C163.475 67.7108 166.683 68.0898 169.728 69.0738L177.143 71.4705" stroke="#A56845" stroke-width="2.08817" stroke-linecap="round"/>
<ellipse cx="48.513" cy="75.3513" rx="2.50929" ry="2.51171" fill="#9D9D9D"/>
<ellipse cx="48.513" cy="67.8162" rx="2.50929" ry="2.51171" fill="#9D9D9D"/>
<path d="M48.513 75.3513C47.2583 73.8164 45.5018 70.0767 48.513 67.3976" stroke="#9D9D9D" stroke-width="0.522042" stroke-linecap="round"/>
<path d="M315.11 301C239.91 305 217.11 235.333 215.11 200C215.11 168.667 235.11 106 315.11 106C395.11 106 411.776 168.667 410.11 200C409.776 232 390.31 297 315.11 301Z" fill="#A7C5C3" fill-opacity="0.3" opacity="0.3"/>
<path d="M120 301C44.8 305 22 235.333 20 200C20 168.667 40 106 120 106C200 106 216.667 168.667 215 200C214.667 232 195.2 297 120 301Z" fill="#A7C5C3" fill-opacity="0.3" opacity="0.3"/>
<path d="M315.11 301C239.91 305 217.11 235.333 215.11 200C215.11 168.667 235.11 106 315.11 106C395.11 106 411.776 168.667 410.11 200C409.776 232 390.31 297 315.11 301Z" stroke="#4B4B4B" stroke-width="5" fill="none"/>
<path d="M120 301C44.8 305 22 235.333 20 200C20 168.667 40 106 120 106C200 106 216.667 168.667 215 200C214.667 232 195.2 297 120 301Z" stroke="#4B4B4B" stroke-width="5" fill="none"/>
</svg>
