<svg width="10" height="15" viewBox="0 0 10 15" fill="none" xmlns="http://www.w3.org/2000/svg">
<path d="M10 2.3125L10 1.4375C10 1.1875 9.75 0.9375 9.5 0.9375L0.5 0.9375C0.25 0.9375 -5.62784e-07 1.1875 -5.51856e-07 1.4375L-5.13609e-07 2.3125C-5.02681e-07 2.5625 0.25 2.8125 0.5 2.8125L9.5 2.8125C9.75 2.8125 10 2.5625 10 2.3125ZM10 9.8125L10 8.9375C10 8.6875 9.75 8.4375 9.5 8.4375L1.75 8.4375C1.5 8.4375 1.25 8.6875 1.25 8.9375L1.25 9.8125C1.25 10.0625 1.5 10.3125 1.75 10.3125L9.5 10.3125C9.75 10.3125 10 10.0625 10 9.8125ZM10 6.0625L10 5.1875C10 4.9375 9.75 4.6875 9.5 4.6875L4.25 4.6875C4 4.6875 3.75 4.9375 3.75 5.1875L3.75 6.0625C3.75 6.3125 4 6.5625 4.25 6.5625L9.5 6.5625C9.75 6.5625 10 6.3125 10 6.0625ZM10 13.5625L10 12.6875C10 12.4375 9.75 12.1875 9.5 12.1875L6.75 12.1875C6.5 12.1875 6.25 12.4375 6.25 12.6875L6.25 13.5625C6.25 13.8125 6.5 14.0625 6.75 14.0625L9.5 14.0625C9.75 14.0625 10 13.8125 10 13.5625Z" fill="white"/>
</svg>
