<svg width="20" height="15" viewBox="0 0 20 15" fill="none" xmlns="http://www.w3.org/2000/svg">
<path d="M4.44444 4.16668H15.5556V10.8333H4.44444V4.16668ZM18.3333 7.50001C18.3333 8.4205 19.0795 9.16668 20 9.16668V12.5C20 13.4205 19.2538 14.1667 18.3333 14.1667H1.66667C0.746181 14.1667 0 13.4205 0 12.5V9.16668C0.920486 9.16668 1.66667 8.4205 1.66667 7.50001C1.66667 6.57952 0.920486 5.83334 0 5.83334V2.50001C0 1.57952 0.746181 0.833344 1.66667 0.833344H18.3333C19.2538 0.833344 20 1.57952 20 2.50001V5.83334C19.0795 5.83334 18.3333 6.57952 18.3333 7.50001ZM16.6667 3.8889C16.6667 3.42866 16.2936 3.05557 15.8333 3.05557H4.16667C3.70642 3.05557 3.33333 3.42866 3.33333 3.8889V11.1111C3.33333 11.5714 3.70642 11.9445 4.16667 11.9445H15.8333C16.2936 11.9445 16.6667 11.5714 16.6667 11.1111V3.8889Z" fill="white"/>
</svg>
